<?xml version="1.0" encoding="UTF-8"?>
<svg version="1.1" xmlns="http://www.w3.org/2000/svg" width="800" height="800">
<path d="M0 0 C264 0 528 0 800 0 C800 264 800 528 800 800 C536 800 272 800 0 800 C0 536 0 272 0 0 Z " fill="#FEFEFE" transform="translate(0,0)"/>
<path d="M0 0 C101.61643836 0 101.61643836 0 124 14 C124.77472656 14.48339844 125.54945313 14.96679688 126.34765625 15.46484375 C134.97929141 21.38515018 140.75875215 29.92504516 145.4375 39.125 C145.7675 39.76937012 146.0975 40.41374023 146.4375 41.07763672 C152.81688769 54.26682057 152.90284454 70.96973762 149.1015625 84.94921875 C144.89398601 96.60211676 137.8040977 106.39111511 129 115 C129.58007812 115.38671875 130.16015625 115.7734375 130.7578125 116.171875 C132.38221432 117.25480955 134.00450411 118.34091683 135.625 119.4296875 C137.42955696 120.62283207 139.26995525 121.76197315 141.125 122.875 C145.04614838 125.7732401 147.94325034 129.22401513 151 133 C151.52851563 133.64195312 152.05703125 134.28390625 152.6015625 134.9453125 C163.10588472 148.25078731 167.6279457 164.18896894 166 181 C162.72378436 198.44860915 153.4812621 214.48524243 139 225 C97.80249539 252.92540392 49.57275092 242 0 242 C0 162.14 0 82.28 0 0 Z " fill="#2563EB" transform="translate(317,279)"/>
<path d="M0 0 C0.66 0 1.32 0 2 0 C2.69128941 12.88629646 3.12005914 25.76880983 3.17724609 38.67330933 C3.18406486 40.05429166 3.1943015 41.43526148 3.20800781 42.81619263 C3.22590179 44.76801909 3.22847891 46.71996753 3.23046875 48.671875 C3.23457764 49.7969043 3.23868652 50.92193359 3.24291992 52.08105469 C3.00534394 54.9357868 2.48412945 56.58392402 1 59 C2.65 59.33 4.3 59.66 6 60 C6.33 58.35 6.66 56.7 7 55 C6.34 55 5.68 55 5 55 C4.34556621 36.66018932 3.83480778 18.35469091 4 0 C4.66 0 5.32 0 6 0 C6.13535156 0.7528125 6.27070313 1.505625 6.41015625 2.28125 C9.88385173 19.42092111 18.18064577 34.10591666 28.3046875 48.2109375 C30.00502035 51.00825928 30.48519315 51.8775195 29.9375 55 C29.74607422 56.16595703 29.74607422 56.16595703 29.55078125 57.35546875 C28.67604571 61.55544009 27.75015258 65.74379196 26.828125 69.93359375 C25.85629107 74.55671371 25.09606271 79.20694958 24.375 83.875 C24.25205566 84.63981689 24.12911133 85.40463379 24.00244141 86.19262695 C22.80817462 94.16126913 22.50898049 101.8563122 22 110 C11.11 110 0.22 110 -11 110 C-11.350625 106.7825 -11.70125 103.565 -12.0625 100.25 C-13.51037138 88.22533541 -16.38112118 76.69146928 -19.4765625 65 C-22.52043083 53.10091137 -22.52043083 53.10091137 -20.375 48.5625 C-19.59957613 47.36433049 -18.80692652 46.17718391 -18 45 C-13.25074845 37.6063949 -9.51710259 30.04170854 -6 22 C-5.5875 21.09507812 -5.175 20.19015625 -4.75 19.2578125 C-2.02916957 12.99590128 -0.88175783 6.75240865 0 0 Z " fill="#FBFCFE" transform="translate(374,281)"/>
<path d="M0 0 C10.56 0 21.12 0 32 0 C32.70125 4.49625 33.4025 8.9925 34.125 13.625 C35.84716428 24.3299825 37.95054718 34.69721058 41.11962891 45.08251953 C43.01688544 51.3996488 44.34489421 56.31618889 41.2421875 62.5078125 C40.46604493 63.72189864 39.67632673 64.92738657 38.875 66.125 C30.47283526 79.40243378 24.61274516 93.46104197 22 109 C21.34 109 20.68 109 20 109 C19.02789184 98.3798844 18.84420039 87.84009812 18.86962891 77.18359375 C18.87504702 74.47650701 18.86961988 71.7695821 18.86328125 69.0625 C18.86394118 67.3229163 18.86522058 65.58333271 18.8671875 63.84375 C18.86516327 63.0436853 18.86313904 62.24362061 18.86105347 61.41931152 C18.87879608 57.16856732 19.15871652 53.18720239 20 49 C17.525 49.495 17.525 49.495 15 50 C15.37904208 53.29075996 15.37904208 53.29075996 17 56 C17.15981526 58.03161111 17.25167406 60.0686098 17.31640625 62.10546875 C17.35838135 63.38993896 17.40035645 64.67440918 17.44360352 65.99780273 C17.48357323 67.39435887 17.52319873 68.79092489 17.5625 70.1875 C17.60537171 71.59643602 17.64825914 73.00537157 17.69116211 74.41430664 C18.02792701 85.94397532 18.10892757 97.46578074 18 109 C17.34 109 16.68 109 16 109 C15.70609375 107.65421875 15.70609375 107.65421875 15.40625 106.28125 C11.65959938 90.64867327 3.71121359 71.57276451 -7.91796875 60.109375 C-9.80553354 56.42964581 -8.06451132 52.82193408 -7 49 C-6.65636544 47.51145517 -6.32285194 46.02053398 -6 44.52734375 C-5.83604736 43.78121826 -5.67209473 43.03509277 -5.50317383 42.26635742 C-2.45409985 28.15421928 -1.03232934 14.4526108 0 0 Z " fill="#FBFCFE" transform="translate(364,410)"/>
<path d="M0 0 C27.39 0 54.78 0 83 0 C83 0.33 83 0.66 83 1 C55.94 1 28.88 1 1 1 C1 80.2 1 159.4 1 241 C22.12 240.67 43.24 240.34 65 240 C64.71125 231.29625 64.4225 222.5925 64.125 213.625 C64.03879395 210.87623535 63.95258789 208.1274707 63.86376953 205.29541016 C63.78754636 203.12660067 63.71061004 200.95781608 63.6328125 198.7890625 C63.58338501 197.08786255 63.58338501 197.08786255 63.53295898 195.35229492 C63.49259521 194.2764917 63.45223145 193.20068848 63.41064453 192.09228516 C63.36401169 190.68663803 63.36401169 190.68663803 63.31643677 189.25259399 C63.20249988 186.80125633 63.20249988 186.80125633 61 185 C61.375 182.375 61.375 182.375 62 180 C63.65 180 65.3 180 67 180 C68.125 183.75 68.125 183.75 67 186 C66.90938144 187.72606453 66.88245499 189.45564507 66.88647461 191.18408203 C66.88655014 192.26505157 66.88662567 193.34602112 66.88670349 194.45974731 C66.89186478 195.63060883 66.89702606 196.80147034 66.90234375 198.0078125 C66.9037587 199.20356903 66.90517365 200.39932556 66.90663147 201.63131714 C66.91224337 205.46256987 66.92479792 209.29376484 66.9375 213.125 C66.94251347 215.71744707 66.94707664 218.30989506 66.95117188 220.90234375 C66.96136714 227.2682695 66.98094033 233.63406985 67 240 C80.365 240.495 80.365 240.495 94 241 C94 241.33 94 241.66 94 242 C62.98 242 31.96 242 0 242 C0 162.14 0 82.28 0 0 Z " fill="#6893F0" transform="translate(317,279)"/>
<path d="M0 0 C13.53 0 27.06 0 41 0 C41 4.29 41 8.58 41 13 C27.47 13 13.94 13 0 13 C0 8.71 0 4.42 0 0 Z " fill="#FCFDFE" transform="translate(359,394)"/>
<path d="M0 0 C1.98 0 3.96 0 6 0 C5.01 0.495 5.01 0.495 4 1 C4.0721875 2.2890625 4.144375 3.578125 4.21875 4.90625 C5.09927785 21.94391447 5.10520162 38.94600866 5 56 C5.66 56 6.32 56 7 56 C7 57.65 7 59.3 7 61 C4.525 61.495 4.525 61.495 2 62 C1.34 60.68 0.68 59.36 0 58 C0.66 57.34 1.32 56.68 2 56 C2.29276047 53.57299406 2.29276047 53.57299406 2.22705078 50.72412109 C2.22689972 49.6231308 2.22674866 48.5221405 2.22659302 47.38778687 C2.21627045 46.19505157 2.20594788 45.00231628 2.1953125 43.7734375 C2.1924826 42.55548492 2.18965271 41.33753235 2.18673706 40.08267212 C2.17551256 36.18001617 2.15040372 32.27758697 2.125 28.375 C2.11497314 25.73437831 2.10584678 23.09375303 2.09765625 20.453125 C2.07556581 13.9686722 2.04206592 7.4843523 2 1 C1.34 0.67 0.68 0.34 0 0 Z " fill="#4177ED" transform="translate(374,280)"/>
<path d="M0 0 C1.65 0 3.3 0 5 0 C6.125 3.75 6.125 3.75 5 6 C4.90927713 7.7566923 4.88245856 9.5168501 4.88647461 11.27587891 C4.88655014 12.3768692 4.88662567 13.4778595 4.88670349 14.61221313 C4.89186478 15.80494843 4.89702606 16.99768372 4.90234375 18.2265625 C4.9037587 19.44451508 4.90517365 20.66246765 4.90663147 21.91732788 C4.91224361 25.8199099 4.92479821 29.72243523 4.9375 33.625 C4.94251343 36.26562417 4.94707661 38.90624924 4.95117188 41.546875 C4.96221699 48.03126945 4.97896698 54.51563068 5 61 C4.34 61 3.68 61 3 61 C2.96907761 59.99188766 2.96907761 59.99188766 2.93753052 58.96340942 C2.72169008 51.9880567 2.49247257 45.01323597 2.25537109 38.03857422 C2.16858007 35.43321836 2.08523678 32.82774532 2.00537109 30.22216797 C1.89018785 26.48368967 1.76273788 22.7458038 1.6328125 19.0078125 C1.59938751 17.83695099 1.56596252 16.66608948 1.53152466 15.45974731 C1.49163422 14.37877777 1.45174377 13.29780823 1.41064453 12.18408203 C1.37955597 11.22921906 1.34846741 10.27435608 1.31643677 9.29055786 C1.20799754 6.80553907 1.20799754 6.80553907 -1 5 C-0.625 2.375 -0.625 2.375 0 0 Z " fill="#4278ED" transform="translate(379,459)"/>
<path d="M0 0 C1.65 0 3.3 0 5 0 C5.625 1.8125 5.625 1.8125 6 4 C5.01 5.485 5.01 5.485 4 7 C3.69933846 9.75417318 3.49074701 12.42645147 3.375 15.1875 C3.33632813 15.93708984 3.29765625 16.68667969 3.2578125 17.45898438 C3.16371784 19.30559199 3.08077681 21.1527619 3 23 C2.67 23 2.34 23 2 23 C1.92652344 21.30230469 1.92652344 21.30230469 1.8515625 19.5703125 C1.77653486 18.08851661 1.70098703 16.606747 1.625 15.125 C1.57859375 14.00544922 1.57859375 14.00544922 1.53125 12.86328125 C1.44356169 8.46526812 1.44356169 8.46526812 -1 5 C-0.625 2.375 -0.625 2.375 0 0 Z " fill="#2B68EB" transform="translate(379,459)"/>
<path d="M0 0 C0.33 0.99 0.66 1.98 1 3 C1.66 3 2.32 3 3 3 C3 4.65 3 6.3 3 8 C1.35 8.33 -0.3 8.66 -2 9 C-2.66 7.68 -3.32 6.36 -4 5 C-2.68 3.35 -1.36 1.7 0 0 Z " fill="#2D69EB" transform="translate(378,333)"/>
</svg>
