<svg xmlns="http://www.w3.org/2000/svg" width="512" height="512" viewBox="0 0 512 512" fill="none">
  <rect width="512" height="512" fill="white"/>
  <path d="M256 80c-70 0-128 58-128 128 0 52 32 96 77 116-6 26-17 54-33 74 41-8 74-28 96-53 22 25 55 45 96 53-16-20-27-48-33-74 45-20 77-64 77-116 0-70-58-128-128-128z" fill="#1E64F0"/>
  <path d="M246 150c-6 0-10 4-10 10v60h40v-60c0-6-4-10-10-10h-20zm0 100c-6 0-10 4-10 10v20c0 6 4 10 10 10h20c6 0 10-4 10-10v-20c0-6-4-10-10-10h-20z" fill="#fff"/>
</svg>
